<svg width="104" height="44" viewBox="0 0 104 44" fill="none" xmlns="http://www.w3.org/2000/svg">
<path d="M9.92227 20.4954C11.4895 20.4954 12.8636 20.8638 14.0444 21.6007C15.2253 22.3159 16.1377 23.2261 16.7818 24.3314L14.3987 26.1845C13.8405 25.3609 13.1856 24.7216 12.4342 24.2664C11.6828 23.8113 10.8455 23.5837 9.92227 23.5837C9.06349 23.5837 8.31205 23.8005 7.66796 24.2339C7.02388 24.6457 6.70183 25.2959 6.70183 26.1845C6.70183 26.5962 6.77698 26.9538 6.92726 27.2573C7.07755 27.539 7.28151 27.7991 7.53915 28.0375C7.79678 28.2542 8.10809 28.4601 8.47307 28.6552C8.83806 28.8285 9.23524 29.0236 9.66463 29.2403L12.0478 30.3456C12.8421 30.7141 13.5614 31.1042 14.2054 31.516C14.8495 31.9277 15.3863 32.3829 15.8157 32.8813C16.2451 33.3582 16.5778 33.8891 16.814 34.4743C17.0502 35.0595 17.1682 35.7205 17.1682 36.4574C17.1682 37.411 16.9858 38.2779 16.6208 39.0581C16.2558 39.8166 15.7513 40.4668 15.1072 41.0086C14.4631 41.5288 13.7009 41.9406 12.8207 42.244C11.9619 42.5257 11.028 42.6666 10.0189 42.6666C8.23691 42.6666 6.65889 42.2548 5.28484 41.4313C3.91079 40.586 2.81584 39.4482 2 38.0178L4.41533 36.1648C4.7159 36.6199 5.04868 37.0534 5.41366 37.4651C5.80011 37.8769 6.21877 38.2454 6.66963 38.5705C7.12049 38.8739 7.61429 39.1231 8.15103 39.3182C8.70924 39.4915 9.32112 39.5782 9.98668 39.5782C11.0816 39.5782 11.9619 39.3182 12.6274 38.798C13.3145 38.2562 13.658 37.5193 13.658 36.5874C13.658 36.1756 13.5828 35.818 13.4325 35.5146C13.2823 35.1895 13.0676 34.9078 12.7885 34.6694C12.5094 34.431 12.1766 34.2142 11.7901 34.0192C11.4251 33.8024 11.0065 33.5857 10.5342 33.369L8.18323 32.2637C7.49621 31.9386 6.85212 31.5918 6.25097 31.2234C5.64983 30.8549 5.12382 30.4323 4.67296 29.9555C4.2221 29.4787 3.86785 28.9477 3.61022 28.3626C3.35258 27.7557 3.22376 27.073 3.22376 26.3145C3.22376 25.4259 3.39552 24.624 3.73903 23.9088C4.10402 23.1936 4.58708 22.5868 5.18823 22.0883C5.81085 21.5682 6.51934 21.1781 7.31372 20.918C8.12956 20.6362 8.99908 20.4954 9.92227 20.4954Z" fill="#161616"/>
<path d="M34.1268 35.6121C34.1268 36.6958 33.9444 37.671 33.5794 38.5379C33.2359 39.4049 32.7528 40.1526 32.1302 40.7811C31.529 41.3879 30.7991 41.8539 29.9403 42.179C29.103 42.5041 28.2012 42.6666 27.2351 42.6666C26.2475 42.6666 25.3351 42.5041 24.4978 42.179C23.6604 41.8539 22.9305 41.3879 22.3079 40.7811C21.6852 40.1526 21.1914 39.4049 20.8265 38.5379C20.4829 37.671 20.3112 36.6958 20.3112 35.6121V26.347H23.6926V35.8722C23.6926 36.9992 24.0362 37.8878 24.7232 38.5379C25.4102 39.1881 26.2475 39.5132 27.2351 39.5132C28.2012 39.5132 29.0171 39.1881 29.6826 38.5379C30.3697 37.8878 30.7132 36.9992 30.7132 35.8722V26.347H34.1268V35.6121Z" fill="#161616"/>
<path d="M49.6594 27.3223L41.3507 39.3507H49.7238V42.309H36.2946V41.3662L44.5711 29.3053H37.0353V26.347H49.6594V27.3223Z" fill="#161616"/>
<path d="M58.1271 25.9894C59.0933 25.9894 59.9735 26.1303 60.7679 26.412C61.5623 26.6938 62.2386 27.1164 62.7968 27.6799C63.3764 28.2217 63.8273 28.9152 64.1493 29.7605C64.4714 30.584 64.6324 31.5485 64.6324 32.6538V42.309H61.4764V40.521C60.9182 41.1929 60.2097 41.7238 59.3509 42.114C58.4921 42.4824 57.5153 42.6666 56.4203 42.6666C55.583 42.6666 54.8208 42.5582 54.1338 42.3415C53.4682 42.1248 52.8886 41.8105 52.3948 41.3988C51.9224 40.987 51.5574 40.4993 51.2998 39.9358C51.0422 39.3723 50.9134 38.7438 50.9134 38.0503C50.9134 36.6416 51.4394 35.5363 52.4914 34.7344C53.5434 33.9108 54.9604 33.499 56.7423 33.499H61.2187V32.4587C61.2187 31.3534 60.9289 30.5082 60.3492 29.923C59.7696 29.3379 58.9322 29.0453 57.8373 29.0453C56.9141 29.0453 56.109 29.2512 55.422 29.6629C54.7349 30.0747 54.0694 30.6599 53.4253 31.4184L51.493 29.4029C52.3089 28.2325 53.2857 27.3765 54.4236 26.8346C55.5615 26.2712 56.796 25.9894 58.1271 25.9894ZM57.1288 40.0334C57.687 40.0334 58.213 39.9467 58.7068 39.7733C59.2006 39.5782 59.63 39.3182 59.995 38.9931C60.3814 38.6463 60.682 38.2454 60.8967 37.7902C61.1114 37.3134 61.2187 36.8041 61.2187 36.2623V35.9697H57.161C56.2593 35.9697 55.5615 36.1323 55.0677 36.4574C54.5954 36.7824 54.3592 37.2701 54.3592 37.9203C54.3592 38.6138 54.6276 39.1448 55.1643 39.5132C55.7011 39.86 56.3559 40.0334 57.1288 40.0334Z" fill="#161616"/>
<path d="M76.4235 25.9894C77.3467 25.9894 78.1732 26.152 78.9032 26.477C79.6332 26.7805 80.2558 27.2139 80.7711 27.7774C81.2863 28.3192 81.6728 28.9803 81.9304 29.7605C82.2095 30.5407 82.3491 31.3968 82.3491 32.3287V42.309H78.9354V32.7838C78.9354 31.6785 78.6241 30.7899 78.0015 30.1181C77.4003 29.4245 76.5738 29.0778 75.5218 29.0778C74.4697 29.0778 73.6002 29.4245 72.9132 30.1181C72.2476 30.7899 71.9149 31.6785 71.9149 32.7838V42.309H68.5334V26.347H71.6572V27.9725C72.2154 27.344 72.8917 26.8563 73.6861 26.5096C74.5019 26.1628 75.4144 25.9894 76.4235 25.9894Z" fill="#161616"/>
<path d="M93.6269 25.9894C94.7862 25.9894 95.8704 26.2061 96.8795 26.6396C97.8886 27.073 98.7688 27.669 99.5203 28.4276C100.293 29.1645 100.894 30.0422 101.324 31.0608C101.775 32.0578 102 33.1414 102 34.3118C102 35.4821 101.775 36.5766 101.324 37.5952C100.894 38.6138 100.293 39.5024 99.5203 40.2609C98.7688 40.9978 97.8779 41.583 96.8473 42.0164C95.8382 42.4499 94.754 42.6666 93.5947 42.6666C92.4353 42.6666 91.3511 42.4499 90.342 42.0164C89.333 41.583 88.442 40.9978 87.6691 40.2609C86.9176 39.5024 86.3272 38.6138 85.8978 37.5952C85.4684 36.5766 85.2537 35.4821 85.2537 34.3118C85.2537 33.1414 85.4684 32.0578 85.8978 31.0608C86.3272 30.0422 86.9176 29.1645 87.6691 28.4276C88.442 27.669 89.333 27.073 90.342 26.6396C91.3726 26.2061 92.4675 25.9894 93.6269 25.9894ZM93.6269 29.1103C92.9184 29.1103 92.2528 29.2512 91.6302 29.5329C91.0291 29.793 90.5138 30.1614 90.0844 30.6382C89.655 31.0933 89.3222 31.646 89.0861 32.2962C88.8499 32.9247 88.7318 33.6074 88.7318 34.3443C88.7318 35.0811 88.8499 35.7638 89.0861 36.3923C89.3222 37.0208 89.655 37.5735 90.0844 38.0503C90.5353 38.5054 91.0505 38.863 91.6302 39.1231C92.2314 39.3832 92.8862 39.5132 93.5947 39.5132C94.3032 39.5132 94.958 39.3832 95.5591 39.1231C96.1603 38.863 96.6756 38.5054 97.1049 38.0503C97.5558 37.5735 97.8993 37.0208 98.1355 36.3923C98.3931 35.7638 98.5219 35.0811 98.5219 34.3443C98.5219 33.6074 98.3931 32.9247 98.1355 32.2962C97.8993 31.646 97.5558 31.0933 97.1049 30.6382C96.6756 30.1614 96.1603 29.793 95.5591 29.5329C94.958 29.2512 94.3139 29.1103 93.6269 29.1103Z" fill="#161616"/>
<path d="M38.737 3.69558C40.0682 3.69558 41.2561 3.999 42.301 4.60584C43.3602 5.19823 44.1975 5.9929 44.8129 6.98984L43.0954 8.26854C42.5944 7.48832 41.979 6.88148 41.249 6.44803C40.519 6.01457 39.6817 5.79784 38.737 5.79784C38.0071 5.79784 37.3272 5.9351 36.6974 6.20962C36.082 6.4697 35.5452 6.83814 35.0872 7.31494C34.6292 7.77729 34.2714 8.33356 34.0137 8.98374C33.7561 9.61947 33.6273 10.3202 33.6273 11.086C33.6273 11.8518 33.7561 12.5597 34.0137 13.2099C34.2714 13.8457 34.6292 14.4019 35.0872 14.8787C35.5452 15.3411 36.082 15.7095 36.6974 15.984C37.3272 16.2441 38.0071 16.3742 38.737 16.3742C39.6817 16.3742 40.519 16.1574 41.249 15.724C41.979 15.2905 42.5944 14.6837 43.0954 13.9035L44.8129 15.1822C44.2118 16.1791 43.3816 16.981 42.3225 17.5878C41.2633 18.1802 40.0682 18.4764 38.737 18.4764C37.6922 18.4764 36.7189 18.2886 35.8172 17.9129C34.9155 17.5373 34.1282 17.0243 33.4555 16.3742C32.7828 15.7095 32.2532 14.9293 31.8668 14.0335C31.4803 13.1232 31.2871 12.1407 31.2871 11.086C31.2871 10.0457 31.4803 9.07765 31.8668 8.18185C32.2532 7.27159 32.7828 6.48415 33.4555 5.81952C34.1282 5.15488 34.9155 4.63474 35.8172 4.25908C36.7189 3.88341 37.6922 3.69558 38.737 3.69558Z" fill="url(#paint0_radial_804_123)"/>
<path d="M50.5113 7.35828C51.1553 7.35828 51.7422 7.4522 52.2718 7.64003C52.8013 7.82786 53.2522 8.1096 53.6243 8.48527C54.0108 8.84648 54.3114 9.30883 54.5261 9.87232C54.7408 10.4214 54.8481 11.0643 54.8481 11.8012V18.238H52.7441V17.046C52.3719 17.4939 51.8996 17.8479 51.3271 18.108C50.7546 18.3536 50.1033 18.4764 49.3734 18.4764C48.8152 18.4764 48.307 18.4042 47.849 18.2597C47.4053 18.1152 47.0189 17.9057 46.6897 17.6312C46.3748 17.3567 46.1315 17.0316 45.9597 16.6559C45.788 16.2802 45.7021 15.8612 45.7021 15.3989C45.7021 14.4597 46.0527 13.7229 46.7541 13.1883C47.4554 12.6392 48.4001 12.3647 49.5881 12.3647H52.5723V11.6712C52.5723 10.9343 52.3791 10.3708 51.9927 9.98069C51.6062 9.59058 51.048 9.39552 50.318 9.39552C49.7026 9.39552 49.1658 9.53278 48.7078 9.8073C48.2498 10.0818 47.8061 10.4719 47.3767 10.9776L46.0885 9.63392C46.6324 8.8537 47.2837 8.28299 48.0423 7.92177C48.8008 7.54611 49.6238 7.35828 50.5113 7.35828ZM49.8457 16.7209C50.2178 16.7209 50.5685 16.6631 50.8977 16.5475C51.2269 16.4175 51.5132 16.2441 51.7565 16.0274C52.0141 15.7962 52.2145 15.5289 52.3576 15.2255C52.5008 14.9076 52.5723 14.5681 52.5723 14.2069V14.0118H49.8672C49.266 14.0118 48.8008 14.1202 48.4716 14.3369C48.1568 14.5536 47.9993 14.8787 47.9993 15.3122C47.9993 15.7745 48.1782 16.1285 48.5361 16.3742C48.8939 16.6053 49.3304 16.7209 49.8457 16.7209Z" fill="url(#paint1_radial_804_123)"/>
<path d="M62.3116 9.5689H59.8212V18.238H57.5669V9.5689H56.064V7.59668H57.5669V5.45108C57.5669 4.16516 57.9104 3.22601 58.5974 2.63362C59.2987 2.04123 60.2148 1.74503 61.3455 1.74503C61.8894 1.74503 62.3689 1.81005 62.784 1.94009V3.86897C62.4404 3.82562 62.1399 3.80395 61.8822 3.80395C61.2382 3.80395 60.73 3.93398 60.3579 4.19406C60.0001 4.45413 59.8212 4.93816 59.8212 5.64613V7.59668H62.3116V9.5689Z" fill="url(#paint2_radial_804_123)"/>
<path d="M68.0819 7.35828C68.7832 7.35828 69.4345 7.48109 70.0356 7.72672C70.6368 7.97234 71.1521 8.31188 71.5814 8.74534C72.0108 9.17879 72.3472 9.69894 72.5905 10.3058C72.8338 10.8982 72.9555 11.5411 72.9555 12.2347C72.9555 12.5236 72.934 12.7981 72.8911 13.0582C72.8625 13.3183 72.8267 13.5206 72.7837 13.6651H64.9259C65.0833 14.5464 65.4698 15.2327 66.0852 15.724C66.7007 16.2152 67.4593 16.4608 68.361 16.4608C68.9765 16.4608 69.5347 16.3525 70.0356 16.1358C70.5366 15.9046 71.0018 15.5939 71.4312 15.2038L72.5261 16.7643C71.9679 17.2989 71.3381 17.7179 70.6368 18.0213C69.9354 18.3247 69.1625 18.4764 68.3181 18.4764C67.5022 18.4764 66.7436 18.3392 66.0423 18.0646C65.341 17.7757 64.7398 17.3855 64.2389 16.8943C63.7379 16.3886 63.3443 15.7962 63.058 15.1171C62.7718 14.4381 62.6286 13.7084 62.6286 12.9282C62.6286 12.148 62.7646 11.4183 63.0366 10.7392C63.3228 10.0602 63.7093 9.47499 64.1959 8.98374C64.6969 8.47804 65.2766 8.08071 65.935 7.79174C66.5934 7.50277 67.309 7.35828 68.0819 7.35828ZM68.0175 9.28716C67.2446 9.28716 66.5862 9.52556 66.0423 10.0024C65.4984 10.4647 65.1406 11.0932 64.9688 11.8879H70.7012C70.6726 11.0499 70.3935 10.4069 69.8639 9.95901C69.3486 9.51111 68.7331 9.28716 68.0175 9.28716ZM71.6459 1.74503L68.8978 5.92788H67.2231L68.9192 1.33325H71.6459V1.74503Z" fill="url(#paint3_radial_804_123)"/>
<defs>
<radialGradient id="paint0_radial_804_123" cx="0" cy="0" r="1" gradientUnits="userSpaceOnUse" gradientTransform="translate(69.062 15.2439) rotate(-159.563) scale(37.2134 19.2743)">
<stop stop-color="#EFBE36"/>
<stop offset="1" stop-color="#B1891E"/>
</radialGradient>
<radialGradient id="paint1_radial_804_123" cx="0" cy="0" r="1" gradientUnits="userSpaceOnUse" gradientTransform="translate(69.062 15.2439) rotate(-159.563) scale(37.2134 19.2743)">
<stop stop-color="#EFBE36"/>
<stop offset="1" stop-color="#B1891E"/>
</radialGradient>
<radialGradient id="paint2_radial_804_123" cx="0" cy="0" r="1" gradientUnits="userSpaceOnUse" gradientTransform="translate(69.062 15.2439) rotate(-159.563) scale(37.2134 19.2743)">
<stop stop-color="#EFBE36"/>
<stop offset="1" stop-color="#B1891E"/>
</radialGradient>
<radialGradient id="paint3_radial_804_123" cx="0" cy="0" r="1" gradientUnits="userSpaceOnUse" gradientTransform="translate(69.062 15.2439) rotate(-159.563) scale(37.2134 19.2743)">
<stop stop-color="#EFBE36"/>
<stop offset="1" stop-color="#B1891E"/>
</radialGradient>
</defs>
</svg>
